<svg width="48" height="30" viewBox="0 0 48 30" fill="none" xmlns="http://www.w3.org/2000/svg">
<g clip-path="url(#clip0_1649_2695)">
<path d="M41.6835 0.472656H6.31507C3.17577 0.472656 0.630859 3.01756 0.630859 6.15687V23.8411C0.630859 26.9804 3.17577 29.5253 6.31507 29.5253H41.6835C44.8228 29.5253 47.3677 26.9804 47.3677 23.8411V6.15687C47.3677 3.01756 44.8228 0.472656 41.6835 0.472656Z" fill="#EFEFEF"/>
<path d="M23.1503 11.8418H22.3166L20.4345 15.8713L18.5271 11.8418H16.0008V17.185L13.5756 11.8418H11.1756L8.42188 18.1576H10.304L10.8724 16.7555H13.8282L14.4345 18.1576H17.5798V13.5976L19.6892 18.1576H21.2177L23.1503 13.9765V18.1576H24.8429V11.8418H23.1503ZM11.4661 15.3155L12.3124 13.2186L13.2092 15.3155H11.4661Z" fill="#98989F"/>
<path d="M38.7365 11.8418H36.5134L34.7197 13.7365L32.9639 11.8418H26.0039V18.1576H32.825L34.6944 16.1618L36.5134 18.1576H38.7365L35.8186 14.9997L38.7365 11.8418ZM31.1576 17.526V16.705H27.6334V15.7071H31.1576V14.2797H27.6334V13.2818H31.1576V12.3344L33.5955 14.9997L31.1576 17.526Z" fill="#98989F"/>
<path d="M41.6842 1.10495C43.0243 1.10495 44.3094 1.63728 45.257 2.58484C46.2045 3.53239 46.7368 4.81755 46.7368 6.15759V23.8418C46.7368 25.1818 46.2045 26.467 45.257 27.4145C44.3094 28.3621 43.0243 28.8944 41.6842 28.8944H6.31579C4.97575 28.8944 3.69059 28.3621 2.74304 27.4145C1.79549 26.467 1.26316 25.1818 1.26316 23.8418V6.15759C1.26316 4.81755 1.79549 3.53239 2.74304 2.58484C3.69059 1.63728 4.97575 1.10495 6.31579 1.10495H41.6842ZM41.6842 -0.158203H6.31579C4.64074 -0.158203 3.03429 0.507209 1.84985 1.69165C0.665412 2.87609 0 4.48253 0 6.15759L0 23.8418C0 25.5168 0.665412 27.1233 1.84985 28.3077C3.03429 29.4922 4.64074 30.1576 6.31579 30.1576H41.6842C43.3593 30.1576 44.9657 29.4922 46.1501 28.3077C47.3346 27.1233 48 25.5168 48 23.8418V6.15759C48 4.48253 47.3346 2.87609 46.1501 1.69165C44.9657 0.507209 43.3593 -0.158203 41.6842 -0.158203Z" fill="#EFEFEF"/>
</g>
<defs>
<clipPath id="clip0_1649_2695">
<rect width="48" height="30" fill="white"/>
</clipPath>
</defs>
</svg>
