<svg width="48" height="30" viewBox="0 0 48 30" fill="none" xmlns="http://www.w3.org/2000/svg">
<g clip-path="url(#clip0_1649_2690)">
<path d="M41.6835 0.472656H6.31507C3.17577 0.472656 0.630859 3.01756 0.630859 6.15687V23.8411C0.630859 26.9804 3.17577 29.5253 6.31507 29.5253H41.6835C44.8228 29.5253 47.3677 26.9804 47.3677 23.8411V6.15687C47.3677 3.01756 44.8228 0.472656 41.6835 0.472656Z" fill="#EFEFEF"/>
<path d="M14.7803 10.5411C14.611 10.7603 14.3924 10.9363 14.1421 11.0549C13.8918 11.1734 13.6171 11.2311 13.3403 11.2232C13.3095 10.6774 13.4957 10.1417 13.8582 9.73263C14.2206 9.31211 14.7326 9.04932 15.2855 9C15.3223 9.55964 15.1413 10.1118 14.7803 10.5411ZM15.2729 11.3368C14.4771 11.3368 13.8076 11.7916 13.4287 11.7916C13.0497 11.7916 12.4687 11.3621 11.8371 11.3747C11.4286 11.3828 11.0293 11.4979 10.6791 11.7084C10.3289 11.919 10.04 12.2177 9.84132 12.5747C9.52148 13.3702 9.40931 14.234 9.51538 15.0847C9.62145 15.9355 9.94227 16.7453 10.4476 17.4379C10.8518 18.0316 11.3445 18.7011 11.9761 18.7011C12.6076 18.7011 12.8224 18.3095 13.555 18.3095C14.2876 18.3095 14.5024 18.7011 15.1466 18.6884C15.7908 18.6758 16.2203 18.0947 16.6245 17.5011C16.9151 17.0827 17.1408 16.6227 17.2939 16.1368C16.9173 15.9667 16.5978 15.6914 16.3737 15.3441C16.1497 14.9968 16.0306 14.5922 16.0308 14.1789C16.0365 13.8114 16.1343 13.4511 16.3153 13.1312C16.4962 12.8112 16.7545 12.5417 17.0666 12.3474C16.8666 12.061 16.6027 11.8251 16.2958 11.6585C15.9888 11.4919 15.6472 11.399 15.2982 11.3874M19.8834 9.73263V18.5747H21.2729V15.5305H23.1803C23.5725 15.552 23.9649 15.4912 24.3322 15.3521C24.6996 15.2129 25.0337 14.9984 25.3133 14.7225C25.5928 14.4465 25.8116 14.1151 25.9554 13.7496C26.0993 13.384 26.1651 12.9925 26.1487 12.6C26.1686 12.2116 26.1068 11.8232 25.9673 11.4602C25.8277 11.0971 25.6135 10.7674 25.3384 10.4924C25.0634 10.2173 24.7337 10.0031 24.3706 9.86353C24.0076 9.72395 23.6192 9.66214 23.2308 9.68211L19.8834 9.73263ZM21.2729 10.8947H22.7887C23.0337 10.8623 23.2829 10.8848 23.5182 10.9605C23.7535 11.0362 23.969 11.1633 24.1492 11.3326C24.3293 11.5018 24.4696 11.709 24.5598 11.9391C24.65 12.1693 24.6879 12.4166 24.6708 12.6632C24.6883 12.911 24.6501 13.1595 24.5592 13.3907C24.4683 13.6219 24.3268 13.8298 24.1452 13.9993C23.9636 14.1688 23.7464 14.2956 23.5096 14.3704C23.2727 14.4452 23.0221 14.4661 22.7761 14.4316H21.2476L21.2729 10.8947ZM28.675 18.7011C29.0852 18.714 29.4913 18.615 29.8495 18.4147C30.2078 18.2145 30.5048 17.9204 30.7087 17.5642V18.6253H31.9718V14.2042C31.9718 12.9411 30.9487 12.0821 29.3571 12.0821C28.7598 12.0243 28.1633 12.1997 27.6924 12.5717C27.2215 12.9437 26.9128 13.4834 26.8308 14.0779H28.094C28.1727 13.807 28.3399 13.5703 28.5688 13.4055C28.7977 13.2407 29.0752 13.1572 29.3571 13.1684C30.2034 13.1684 30.6203 13.56 30.6203 14.2926V14.7853L28.8897 14.8863C27.2855 14.9874 26.3634 15.6442 26.3634 16.7811C26.3721 17.0608 26.4406 17.3355 26.5644 17.5865C26.6882 17.8375 26.8644 18.0591 27.081 18.2362C27.2977 18.4134 27.5498 18.5421 27.8204 18.6135C28.0911 18.685 28.3738 18.6976 28.6497 18.6505L28.675 18.7011ZM29.0539 17.64C28.3087 17.64 27.7908 17.2863 27.7908 16.7432C27.7908 16.2 28.2455 15.8589 29.0539 15.8084L30.595 15.7074V16.2126C30.5627 16.6002 30.3815 16.9601 30.0894 17.2169C29.7974 17.4736 29.4172 17.6072 29.0287 17.5895L29.0539 17.64ZM33.7276 21.0505C35.0792 21.0505 35.7108 20.5326 36.2539 18.9789L38.6792 12.1705H37.2645L35.635 17.4253L34.0055 12.1705H32.5276L34.8771 18.6505L34.7508 19.0421C34.7074 19.3142 34.5645 19.5606 34.3498 19.7333C34.135 19.906 33.8638 19.9928 33.5887 19.9768H33.1845V21.0379C33.3578 21.0388 33.531 21.0261 33.7024 21L33.7276 21.0505Z" fill="#98989F"/>
<path d="M41.6842 1.10495C43.0243 1.10495 44.3094 1.63728 45.257 2.58484C46.2045 3.53239 46.7368 4.81755 46.7368 6.15759V23.8418C46.7368 25.1818 46.2045 26.467 45.257 27.4145C44.3094 28.3621 43.0243 28.8944 41.6842 28.8944H6.31579C4.97575 28.8944 3.69059 28.3621 2.74304 27.4145C1.79549 26.467 1.26316 25.1818 1.26316 23.8418V6.15759C1.26316 4.81755 1.79549 3.53239 2.74304 2.58484C3.69059 1.63728 4.97575 1.10495 6.31579 1.10495H41.6842ZM41.6842 -0.158203H6.31579C4.64074 -0.158203 3.03429 0.507209 1.84985 1.69165C0.665412 2.87609 0 4.48253 0 6.15759L0 23.8418C0 25.5168 0.665412 27.1233 1.84985 28.3077C3.03429 29.4922 4.64074 30.1576 6.31579 30.1576H41.6842C43.3593 30.1576 44.9657 29.4922 46.1501 28.3077C47.3346 27.1233 48 25.5168 48 23.8418V6.15759C48 4.48253 47.3346 2.87609 46.1501 1.69165C44.9657 0.507209 43.3593 -0.158203 41.6842 -0.158203Z" fill="#EFEFEF"/>
</g>
<defs>
<clipPath id="clip0_1649_2690">
<rect width="48" height="30" fill="white"/>
</clipPath>
</defs>
</svg>
