<svg width="48" height="30" viewBox="0 0 48 30" fill="none" xmlns="http://www.w3.org/2000/svg">
<g clip-path="url(#clip0_1649_2700)">
<path d="M41.6835 0.472656H6.31507C3.17577 0.472656 0.630859 3.01756 0.630859 6.15687V23.8411C0.630859 26.9804 3.17577 29.5253 6.31507 29.5253H41.6835C44.8228 29.5253 47.3677 26.9804 47.3677 23.8411V6.15687C47.3677 3.01756 44.8228 0.472656 41.6835 0.472656Z" fill="#EFEFEF"/>
<path d="M33.9263 16.6672C32.6574 21.7427 27.5194 24.8255 22.4439 23.5566C17.3684 22.2878 14.2855 17.1497 15.5455 12.0831C16.8054 7.0076 21.9435 3.91583 27.019 5.17577C29.4584 5.7834 31.5583 7.32929 32.854 9.49174C34.1497 11.6453 34.534 14.2277 33.9263 16.6672Z" fill="#98989F"/>
<path d="M28.9133 13.0206C29.1009 11.7607 28.1358 11.0816 26.8223 10.6258L27.2512 8.91911L26.2147 8.65997L25.7947 10.322L24.9636 10.1254L25.3836 8.45445L24.3381 8.19531L23.9182 9.90204L23.248 9.75013L21.8093 9.3927L21.5323 10.5007C21.5323 10.5007 22.3008 10.6795 22.2919 10.6884C22.5957 10.7241 22.8101 10.9922 22.7744 11.296L22.2919 13.244H22.3991H22.2829L21.6038 15.9247C21.577 16.023 21.5055 16.0945 21.4162 16.1392C21.3268 16.1839 21.2285 16.1928 21.1302 16.166L20.3707 15.9784L19.8613 17.1668L21.2106 17.5064L21.9523 17.703L21.5234 19.4276L22.5599 19.6867L22.9888 17.98L23.8109 18.1944L23.391 19.8922L24.4275 20.1514L24.8654 18.4268C26.6525 18.7663 27.9661 18.6233 28.529 17.0238C28.7703 16.5681 28.806 16.032 28.6273 15.5494C28.4397 15.0669 28.0644 14.6827 27.5729 14.504C28.3056 14.3521 28.8507 13.7265 28.9043 12.9759V13.0206H28.9133ZM26.5185 16.3537C26.1968 17.6404 24.0165 16.9434 23.3195 16.7736L23.8824 14.4772C24.5883 14.6559 26.8491 15.0044 26.5185 16.3537ZM26.8402 13.0028C26.5453 14.1733 24.7313 13.5746 24.1594 13.4317L24.7313 11.3586C25.2675 11.5015 27.1618 11.7786 26.858 13.0028H26.8402Z" fill="#EFEFEF"/>
<path d="M41.6842 1.10495C43.0243 1.10495 44.3094 1.63728 45.257 2.58484C46.2045 3.53239 46.7368 4.81755 46.7368 6.15759V23.8418C46.7368 25.1818 46.2045 26.467 45.257 27.4145C44.3094 28.3621 43.0243 28.8944 41.6842 28.8944H6.31579C4.97575 28.8944 3.69059 28.3621 2.74304 27.4145C1.79549 26.467 1.26316 25.1818 1.26316 23.8418V6.15759C1.26316 4.81755 1.79549 3.53239 2.74304 2.58484C3.69059 1.63728 4.97575 1.10495 6.31579 1.10495H41.6842ZM41.6842 -0.158203H6.31579C4.64074 -0.158203 3.03429 0.507209 1.84985 1.69165C0.665412 2.87609 0 4.48253 0 6.15759L0 23.8418C0 25.5168 0.665412 27.1233 1.84985 28.3077C3.03429 29.4922 4.64074 30.1576 6.31579 30.1576H41.6842C43.3593 30.1576 44.9657 29.4922 46.1501 28.3077C47.3346 27.1233 48 25.5168 48 23.8418V6.15759C48 4.48253 47.3346 2.87609 46.1501 1.69165C44.9657 0.507209 43.3593 -0.158203 41.6842 -0.158203Z" fill="#EFEFEF"/>
</g>
<defs>
<clipPath id="clip0_1649_2700">
<rect width="48" height="30" fill="white"/>
</clipPath>
</defs>
</svg>
