<svg width="48" height="30" viewBox="0 0 48 30" fill="none" xmlns="http://www.w3.org/2000/svg">
<g clip-path="url(#clip0_1649_2678)">
<path d="M41.6835 0.472656H6.31507C3.17577 0.472656 0.630859 3.01756 0.630859 6.15687V23.8411C0.630859 26.9804 3.17577 29.5253 6.31507 29.5253H41.6835C44.8228 29.5253 47.3677 26.9804 47.3677 23.8411V6.15687C47.3677 3.01756 44.8228 0.472656 41.6835 0.472656Z" fill="#EFEFEF"/>
<path d="M41.6842 1.10495C43.0243 1.10495 44.3094 1.63728 45.257 2.58484C46.2045 3.53239 46.7368 4.81755 46.7368 6.15759V23.8418C46.7368 25.1818 46.2045 26.467 45.257 27.4145C44.3094 28.3621 43.0243 28.8944 41.6842 28.8944H6.31579C4.97575 28.8944 3.69059 28.3621 2.74304 27.4145C1.79549 26.467 1.26316 25.1818 1.26316 23.8418V6.15759C1.26316 4.81755 1.79549 3.53239 2.74304 2.58484C3.69059 1.63728 4.97575 1.10495 6.31579 1.10495H41.6842ZM41.6842 -0.158203H6.31579C4.64074 -0.158203 3.03429 0.507209 1.84985 1.69165C0.665412 2.87609 0 4.48253 0 6.15759L0 23.8418C0 25.5168 0.665412 27.1233 1.84985 28.3077C3.03429 29.4922 4.64074 30.1576 6.31579 30.1576H41.6842C43.3593 30.1576 44.9657 29.4922 46.1501 28.3077C47.3346 27.1233 48 25.5168 48 23.8418V6.15759C48 4.48253 47.3346 2.87609 46.1501 1.69165C44.9657 0.507209 43.3593 -0.158203 41.6842 -0.158203Z" fill="#EFEFEF"/>
<path d="M34.4968 15C34.4956 16.2178 34.1239 17.4064 33.431 18.4079C32.7381 19.4094 31.7568 20.1763 30.6176 20.6068C29.4784 21.0372 28.2352 21.1108 27.0532 20.8178C25.8711 20.5248 24.8062 19.879 24 18.9663C24.9679 17.8718 25.5022 16.4611 25.5022 15C25.5022 13.5389 24.9679 12.1282 24 11.0337C24.8062 10.1209 25.8711 9.47516 27.0532 9.18213C28.2352 8.88911 29.4784 8.96272 30.6176 9.39318C31.7568 9.82363 32.7381 10.5906 33.431 11.592C34.1239 12.5935 34.4956 13.7822 34.4968 15Z" fill="#98989F"/>
<path d="M23.9993 18.9658C24.8294 18.9658 25.5024 17.1901 25.5024 14.9995C25.5024 12.809 24.8294 11.0332 23.9993 11.0332C23.1691 11.0332 22.4961 12.809 22.4961 14.9995C22.4961 17.1901 23.1691 18.9658 23.9993 18.9658Z" fill="#98989F"/>
<path d="M22.4969 15C22.4995 16.4608 23.0338 17.8707 24.0001 18.9663C23.1943 19.881 22.129 20.5285 20.946 20.8227C19.763 21.1168 18.5185 21.0437 17.3782 20.613C16.2378 20.1823 15.2557 19.4145 14.5625 18.4118C13.8693 17.4091 13.498 16.219 13.498 15C13.498 13.781 13.8693 12.5909 14.5625 11.5882C15.2557 10.5855 16.2378 9.81766 17.3782 9.38697C18.5185 8.95628 19.763 8.88316 20.946 9.17734C22.129 9.47151 23.1943 10.119 24.0001 11.0337C23.0338 12.1293 22.4995 13.5392 22.4969 15Z" fill="#98989F"/>
</g>
<defs>
<clipPath id="clip0_1649_2678">
<rect width="48" height="30" fill="white"/>
</clipPath>
</defs>
</svg>
