<svg width="13" height="16" viewBox="0 0 13 16" fill="none" xmlns="http://www.w3.org/2000/svg">
<path d="M11.3813 3.42178C11.2806 3.36656 11.1814 3.30521 11.0865 3.23773C10.809 3.04141 10.5545 2.81135 10.3288 2.55061C9.76366 1.86043 9.55229 1.15951 9.47464 0.670245H9.47752C9.41281 0.263804 9.43869 0 9.44301 0H6.8663V10.6242C6.8663 10.7669 6.8663 10.908 6.86055 11.0475C6.86055 11.0644 6.85911 11.0813 6.85767 11.0997C6.85767 11.1074 6.85767 11.115 6.85624 11.1227V11.1288C6.8016 11.9034 6.38892 12.5966 5.75625 12.9801C5.43128 13.1779 5.06462 13.2807 4.69077 13.2807C3.49013 13.2807 2.51811 12.2362 2.51811 10.9479C2.51811 9.65951 3.49013 8.61503 4.69077 8.61503C4.91795 8.61503 5.1437 8.65337 5.35939 8.72853L5.36226 5.93098C4.03653 5.74847 2.69928 6.16564 1.6755 7.08129C1.23119 7.49233 0.85878 7.98313 0.572639 8.53221C0.463359 8.7316 0.0535596 9.53528 0.00323329 10.8405C-0.0284004 11.5813 0.180094 12.3482 0.279309 12.6641V12.6702C0.341138 12.8574 0.584142 13.4939 0.978125 14.0307C1.2959 14.4617 1.67263 14.8405 2.09393 15.1534V15.1472L2.09968 15.1534C3.34634 16.0567 4.72959 15.9985 4.72959 15.9985C4.96828 15.9877 5.77063 15.9985 6.68081 15.5383C7.69021 15.0276 8.26537 14.2684 8.26537 14.2684C8.63204 13.8144 8.92537 13.296 9.12955 12.7377C9.36249 12.0844 9.44013 11.3006 9.44013 10.9862V5.34969C9.47177 5.36963 9.88732 5.66258 9.88732 5.66258C9.88732 5.66258 10.4869 6.07209 11.423 6.33896C12.0945 6.52914 12.9989 6.56902 12.9989 6.56902V3.84202C12.6826 3.87883 12.0384 3.77147 11.3799 3.42178H11.3813Z" fill="#98989F"/>
</svg>
