<svg width="48" height="30" viewBox="0 0 48 30" fill="none" xmlns="http://www.w3.org/2000/svg">
<g clip-path="url(#clip0_1649_2685)">
<path d="M41.6835 0.472656H6.31507C3.17577 0.472656 0.630859 3.01756 0.630859 6.15687V23.8411C0.630859 26.9804 3.17577 29.5253 6.31507 29.5253H41.6835C44.8228 29.5253 47.3677 26.9804 47.3677 23.8411V6.15687C47.3677 3.01756 44.8228 0.472656 41.6835 0.472656Z" fill="#EFEFEF"/>
<path d="M19.4343 10.6555L15.8091 19.3586H13.4217L11.6659 12.4744C11.6517 12.3111 11.5954 12.1542 11.5024 12.0191C11.4094 11.8841 11.2829 11.7754 11.1354 11.7039C10.4352 11.3685 9.69728 11.1183 8.9375 10.9586V10.706H12.727C12.9778 10.709 13.2194 10.8007 13.409 10.9648C13.5986 11.129 13.724 11.3551 13.7628 11.6029L14.6975 16.6555L17.0217 10.7313L19.4343 10.6555ZM28.6933 16.5165C28.6933 14.2302 25.5354 14.1039 25.5607 13.0681C25.5607 12.765 25.8638 12.4239 26.508 12.3481C27.2656 12.2714 28.0298 12.4024 28.7186 12.7271L29.1101 10.8829C28.4381 10.637 27.7288 10.5088 27.0133 10.5039C24.8028 10.5039 23.2238 11.6786 23.2238 13.3839C23.2238 14.6471 24.3354 15.3292 25.1817 15.746C26.028 16.1629 26.3438 16.4534 26.3438 16.8323C26.3438 17.4134 25.6491 17.666 25.0049 17.6786C24.2044 17.6997 23.4123 17.5126 22.7059 17.1355L22.2638 19.0429C23.0696 19.3527 23.9269 19.507 24.7901 19.4976C27.1396 19.4976 28.668 18.3355 28.6807 16.5165M34.5164 19.3586H36.5754L34.7817 10.6555H32.887C32.681 10.6553 32.4797 10.7164 32.3087 10.8312C32.1377 10.9459 32.0048 11.1091 31.927 11.2997L28.5796 19.3586H30.9291L31.3838 18.0955H34.2512L34.5164 19.3586ZM31.9901 16.2765L33.1775 13.0176L33.8849 16.2639L31.9901 16.2765ZM22.5922 10.6555L20.748 19.3586H18.5501L20.3943 10.6555H22.5922Z" fill="#98989F"/>
<path d="M41.6842 1.10495C43.0243 1.10495 44.3094 1.63728 45.257 2.58484C46.2045 3.53239 46.7368 4.81755 46.7368 6.15759V23.8418C46.7368 25.1818 46.2045 26.467 45.257 27.4145C44.3094 28.3621 43.0243 28.8944 41.6842 28.8944H6.31579C4.97575 28.8944 3.69059 28.3621 2.74304 27.4145C1.79549 26.467 1.26316 25.1818 1.26316 23.8418V6.15759C1.26316 4.81755 1.79549 3.53239 2.74304 2.58484C3.69059 1.63728 4.97575 1.10495 6.31579 1.10495H41.6842ZM41.6842 -0.158203H6.31579C4.64074 -0.158203 3.03429 0.507209 1.84985 1.69165C0.665412 2.87609 0 4.48253 0 6.15759L0 23.8418C0 25.5168 0.665412 27.1233 1.84985 28.3077C3.03429 29.4922 4.64074 30.1576 6.31579 30.1576H41.6842C43.3593 30.1576 44.9657 29.4922 46.1501 28.3077C47.3346 27.1233 48 25.5168 48 23.8418V6.15759C48 4.48253 47.3346 2.87609 46.1501 1.69165C44.9657 0.507209 43.3593 -0.158203 41.6842 -0.158203Z" fill="#EFEFEF"/>
</g>
<defs>
<clipPath id="clip0_1649_2685">
<rect width="48" height="30" fill="white"/>
</clipPath>
</defs>
</svg>
